PathFileType	4	(X/Y/Z)	/home/nbianco/projects/addbio/data/HamnerRunning2013/Processed/subject17//results/MarkerData/run500.trc
DataRate	CameraRate	NumFrames	NumMarkers	Units	OrigDataRate	OrigDataStartFrame	OrigNumFrames
120.005	120.005	8	41	m	120.005	59	238
Frame#	Time	C7			CLAV			LACR			LASI			LCAL			LFAradius			LFAsuperior			LFAulna			LLEL			LMEL			LMT5			LPSI			LTB1			LTB2			LTB3			LTH1			LTH2			LTH3			LTOE			LUA1			LUA2			LUA3			RACR			RASI			RCAL			RFAradius			RFAsuperior			RFAulna			RLEL			RMEL			RMT5			RPSI			RTB1			RTB2			RTB3			RTH1			RTH3			RTOE			RUA1			RUA2			RUA3		
		X1	Y1	Z1	X2	Y2	Z2	X3	Y3	Z3	X4	Y4	Z4	X5	Y5	Z5	X6	Y6	Z6	X7	Y7	Z7	X8	Y8	Z8	X9	Y9	Z9	X10	Y10	Z10	X11	Y11	Z11	X12	Y12	Z12	X13	Y13	Z13	X14	Y14	Z14	X15	Y15	Z15	X16	Y16	Z16	X17	Y17	Z17	X18	Y18	Z18	X19	Y19	Z19	X20	Y20	Z20	X21	Y21	Z21	X22	Y22	Z22	X23	Y23	Z23	X24	Y24	Z24	X25	Y25	Z25	X26	Y26	Z26	X27	Y27	Z27	X28	Y28	Z28	X29	Y29	Z29	X30	Y30	Z30	X31	Y31	Z31	X32	Y32	Z32	X33	Y33	Z33	X34	Y34	Z34	X35	Y35	Z35	X36	Y36	Z36	X37	Y37	Z37	X38	Y38	Z38	X39	Y39	Z39	X40	Y40	Z40	X41	Y41	Z41

60	0.741667	0.923652	1.46551	-0.346655	1.03471	1.40034	-0.286102	1.02366	1.39679	-0.513055	0.987316	0.962619	-0.43859	0.628357	0.126556	-0.298221	1.11474	1.08631	-0.456195	1.0518	1.0751	-0.565753	1.13906	1.0416	-0.504674	0.937332	1.10481	-0.622507	0.882899	1.09478	-0.555282	0.811421	0.05973	-0.356576	0.833795	0.998369	-0.359231	0.906382	0.332306	-0.325933	0.834336	0.280214	-0.391156	0.799349	0.201841	-0.309933	0.928274	0.771922	-0.494908	0.979067	0.660396	-0.469777	0.916271	0.55127	-0.428452	0.826343	0.073413	-0.267103	0.976113	1.26329	-0.574364	0.907658	1.21692	-0.579687	0.975934	1.17774	-0.591595	0.941851	1.41082	-0.124549	1.00725	0.936641	-0.210384	0.795101	0.541201	-0.242875	0.752536	0.967309	-0.0630899	0.739563	1.08525	-0.0276088	0.702959	0.965963	-0.0118419	0.710903	1.21096	-0.0459895	0.691624	1.19222	-0.123807	0.823615	0.359514	-0.156834	0.838995	0.985928	-0.262447	1.10552	0.477189	-0.239514	1.04303	0.500051	-0.174507	0.986869	0.468124	-0.240922	0.989726	0.790446	-0.150458	1.16217	0.610778	-0.168225	0.832966	0.332524	-0.248706	0.841488	1.30869	-0.0811542	0.777705	1.32239	-0.121161	0.771886	1.25399	-0.0592631
61	0.75	0.92229	1.4712	-0.346534	1.03232	1.40728	-0.283889	1.02571	1.40377	-0.510839	0.991221	0.965856	-0.438738	0.595702	0.13517	-0.30058	1.12012	1.10038	-0.449236	1.06046	1.085	-0.559955	1.14738	1.05578	-0.496039	0.946621	1.10973	-0.620127	0.890713	1.09918	-0.554059	0.775495	0.0598808	-0.357021	0.836796	1.00315	-0.362189	0.877509	0.335602	-0.32678	0.803524	0.285677	-0.391789	0.767572	0.206962	-0.311681	0.921974	0.77605	-0.493674	0.968281	0.662653	-0.468412	0.897178	0.555829	-0.4279	0.791102	0.0742958	-0.268037	0.98173	1.26922	-0.572395	0.914318	1.22171	-0.579522	0.983278	1.18368	-0.589115	0.936387	1.41797	-0.124705	1.00794	0.944516	-0.209709	0.808946	0.512967	-0.24228	0.740781	0.978611	-0.0669113	0.728281	1.09637	-0.0316786	0.690122	0.977305	-0.0170469	0.701328	1.22216	-0.0501068	0.683003	1.20453	-0.128506	0.860441	0.335806	-0.157079	0.839491	0.992898	-0.264905	1.12689	0.483055	-0.243181	1.0614	0.500271	-0.177103	1.0067	0.462196	-0.242778	0.990926	0.798898	-0.150456	1.17224	0.626045	-0.172629	0.872165	0.31056	-0.249475	0.834376	1.31766	-0.0825813	0.771663	1.33286	-0.123462	0.763672	1.26376	-0.062089
62	0.758333	0.92087	1.47738	-0.34641	1.02997	1.41484	-0.281646	1.02765	1.41155	-0.508486	0.995905	0.969591	-0.439312	0.563659	0.147293	-0.30389	1.12412	1.11471	-0.442696	1.06776	1.09582	-0.55447	1.15408	1.07044	-0.48797	0.954929	1.11604	-0.617864	0.897263	1.10528	-0.552855	0.738252	0.0600687	-0.357488	0.840546	1.00795	-0.364803	0.848593	0.341639	-0.328227	0.772796	0.29393	-0.392996	0.736058	0.21463	-0.313784	0.918267	0.780992	-0.492376	0.959766	0.665936	-0.46623	0.87878	0.562329	-0.42749	0.754551	0.0750961	-0.26894	0.987005	1.27625	-0.570571	0.920648	1.22783	-0.579464	0.990117	1.19073	-0.58664	0.930961	1.4259	-0.125027	1.00957	0.953399	-0.209057	0.825817	0.483298	-0.242229	0.730637	0.990363	-0.0713575	0.718115	1.10803	-0.0361275	0.678969	0.988923	-0.0227815	0.692363	1.23386	-0.0544565	0.675165	1.21717	-0.133415	0.899385	0.313369	-0.157945	0.840241	1.0001	-0.267338	1.14738	0.488112	-0.246926	1.07928	0.499423	-0.1799	1.02698	0.455326	-0.244756	0.992584	0.808047	-0.149679	1.18047	0.640159	-0.177376	0.913258	0.290242	-0.251176	0.827563	1.32732	-0.0840936	0.766164	1.34419	-0.126011	0.755887	1.27422	-0.0651344
63	0.766667	0.919523	1.48396	-0.346271	1.02766	1.42268	-0.27945	1.02958	1.41989	-0.506065	1.00119	0.973556	-0.439876	0.532709	0.162473	-0.30813	1.12684	1.129	-0.436581	1.07379	1.10725	-0.549386	1.15928	1.08525	-0.48051	0.962271	1.12348	-0.615836	0.902659	1.11274	-0.551788	0.699598	0.0601353	-0.358086	0.8449	1.0129	-0.367079	0.819823	0.350436	-0.330855	0.742292	0.305228	-0.395323	0.705359	0.224702	-0.316769	0.917363	0.785906	-0.491104	0.952202	0.66968	-0.463608	0.861316	0.570544	-0.427617	0.716556	0.0756472	-0.269891	0.991896	1.28413	-0.568864	0.926462	1.23508	-0.579423	0.996314	1.19871	-0.584343	0.92562	1.43424	-0.125513	1.01181	0.962957	-0.208308	0.845927	0.45282	-0.242684	0.722004	1.00218	-0.0762782	0.709016	1.11994	-0.0407733	0.669471	1.00054	-0.0287556	0.683926	1.24578	-0.0589351	0.668063	1.22973	-0.138401	0.940102	0.292557	-0.159463	0.841523	1.00734	-0.269749	1.16665	0.492534	-0.250602	1.09689	0.497426	-0.182871	1.04836	0.447613	-0.24687	0.995397	0.8179	-0.148197	1.187	0.652983	-0.182282	0.95583	0.271793	-0.253522	0.82093	1.33749	-0.0856469	0.761004	1.35591	-0.128803	0.748405	1.28516	-0.0682873
64	0.775	0.918296	1.49074	-0.346085	1.02538	1.43052	-0.277338	1.03152	1.42853	-0.5036	1.00691	0.977588	-0.439871	0.503812	0.179703	-0.313185	1.12841	1.14301	-0.430889	1.07872	1.11896	-0.544778	1.16315	1.09989	-0.473614	0.968735	1.13174	-0.614214	0.907159	1.12112	-0.55104	0.660007	0.0600471	-0.358978	0.849776	1.01808	-0.369135	0.79155	0.361573	-0.334886	0.712258	0.319332	-0.399046	0.676127	0.236581	-0.321214	0.918227	0.790412	-0.489913	0.944318	0.674017	-0.461039	0.84475	0.58037	-0.428611	0.677791	0.0761407	-0.271171	0.996401	1.29258	-0.567242	0.931655	1.24324	-0.579379	1.00181	1.20741	-0.58235	0.920417	1.44262	-0.126171	1.01435	0.97292	-0.207355	0.869241	0.422118	-0.243436	0.714808	1.01385	-0.0814228	0.700952	1.13183	-0.0454626	0.661559	1.0119	-0.0347426	0.675967	1.25762	-0.0634033	0.661608	1.24195	-0.143348	0.982339	0.273598	-0.161766	0.843591	1.01448	-0.272097	1.18447	0.496471	-0.254068	1.11438	0.494315	-0.185893	1.07096	0.439392	-0.249163	0.999726	0.828306	-0.146274	1.192	0.664452	-0.187159	0.999545	0.255352	-0.256368	0.814431	1.34796	-0.0872366	0.756025	1.36758	-0.131778	0.741163	1.29634	-0.0714313
65	0.783333	0.91717	1.49749	-0.345836	1.02313	1.43809	-0.275308	1.03347	1.43721	-0.501089	1.01289	0.981594	-0.438937	0.478242	0.197948	-0.319096	1.12899	1.15659	-0.425615	1.08272	1.13069	-0.540671	1.16584	1.11412	-0.467209	0.974438	1.14052	-0.613163	0.91105	1.13002	-0.550783	0.620474	0.060114	-0.360362	0.855025	1.02343	-0.371019	0.764405	0.374466	-0.340064	0.683121	0.335648	-0.404069	0.649043	0.2495	-0.327479	0.919288	0.794766	-0.488902	0.935576	0.679302	-0.45888	0.828895	0.591795	-0.43045	0.639692	0.0772353	-0.27324	1.00056	1.30135	-0.565715	0.936242	1.2521	-0.579387	1.00662	1.21655	-0.58071	0.915391	1.45074	-0.127007	1.01702	0.983099	-0.2061	0.895556	0.391665	-0.24423	0.708969	1.02527	-0.0864798	0.693897	1.14344	-0.0500685	0.655133	1.02283	-0.0405578	0.66847	1.26915	-0.0677196	0.65566	1.25368	-0.148139	1.0259	0.256678	-0.16497	0.84648	1.02137	-0.274281	1.20089	0.499922	-0.257339	1.13186	0.490163	-0.188855	1.09441	0.431037	-0.251713	1.00547	0.839148	-0.14426	1.19567	0.674506	-0.191888	1.04408	0.241092	-0.259819	0.808089	1.35847	-0.0889051	0.75116	1.37883	-0.134885	0.734168	1.30748	-0.0744814
66	0.791667	0.916088	1.50394	-0.345553	1.02092	1.44516	-0.273362	1.03539	1.44565	-0.498536	1.01891	0.985441	-0.437101	0.45706	0.21663	-0.326177	1.1287	1.1696	-0.420778	1.0859	1.14217	-0.537024	1.16747	1.12769	-0.461231	0.97948	1.14953	-0.612746	0.914532	1.13909	-0.55115	0.582164	0.0611229	-0.362428	0.860361	1.02882	-0.37264	0.73924	0.38862	-0.345744	0.655564	0.353446	-0.409942	0.624676	0.262872	-0.335425	0.91934	0.799547	-0.488227	0.926199	0.685612	-0.457282	0.813624	0.604764	-0.432648	0.603834	0.0798931	-0.276534	1.00443	1.31024	-0.564328	0.940351	1.26139	-0.579538	1.01087	1.22585	-0.579412	0.910577	1.45834	-0.128014	1.0198	0.993264	-0.204541	0.92459	0.36181	-0.244927	0.704369	1.03637	-0.0911878	0.687799	1.15459	-0.0544773	0.650074	1.03316	-0.0460321	0.661446	1.28013	-0.0717716	0.650051	1.26477	-0.152638	1.07048	0.241931	-0.169076	0.849963	1.02803	-0.276146	1.21609	0.502729	-0.260589	1.14943	0.485054	-0.191718	1.11819	0.422788	-0.254549	1.01213	0.850418	-0.142533	1.19817	0.683038	-0.196411	1.08905	0.229222	-0.264073	0.801962	1.36868	-0.0907118	0.746413	1.38938	-0.138097	0.72746	1.31831	-0.0773973
67	0.8	0.91499	1.50986	-0.345306	1.01878	1.45153	-0.271544	1.03729	1.45363	-0.49596	1.02467	0.988937	-0.434725	0.440494	0.23575	-0.334761	1.12765	1.1819	-0.416439	1.08835	1.15316	-0.533786	1.16813	1.14037	-0.455643	0.983929	1.15848	-0.612882	0.91766	1.14807	-0.552225	0.54595	0.0642499	-0.365327	0.865436	1.03422	-0.37387	0.716842	0.403613	-0.351083	0.630581	0.371928	-0.415965	0.603267	0.276485	-0.344239	0.918006	0.805151	-0.488029	0.916765	0.692654	-0.456307	0.799089	0.618983	-0.434453	0.571107	0.085023	-0.281191	1.0081	1.31905	-0.56312	0.94416	1.27083	-0.579898	1.01469	1.23503	-0.578431	0.906021	1.46522	-0.129163	1.02271	1.00301	-0.202856	0.956026	0.332847	-0.245596	0.700864	1.04703	-0.0954199	0.682579	1.1651	-0.058577	0.646253	1.04282	-0.0510051	0.654902	1.29036	-0.0754901	0.644655	1.27508	-0.156709	1.1156	0.229345	-0.173948	0.853667	1.0346	-0.277558	1.23028	0.504688	-0.263967	1.16716	0.479111	-0.194489	1.14191	0.414698	-0.257553	1.01894	0.86194	-0.141459	1.1996	0.689873	-0.200628	1.13397	0.219856	-0.269169	0.796121	1.37825	-0.0926815	0.741833	1.39908	-0.141385	0.72109	1.32856	-0.0801625
